<?xml version="1.0" encoding="UTF-8"?>
<svg version="1.1" xmlns="http://www.w3.org/2000/svg" width="581" height="712">
<path d="M0 0 C0.63035156 0.33902344 1.26070313 0.67804687 1.91015625 1.02734375 C11.83252938 7.15522694 16.36947081 19.38953966 21 29.5625 C21.65385419 30.97960275 22.30849483 32.39634286 22.96386719 33.81274414 C24.99034844 38.20194763 26.99711878 42.59998726 29 47 C29.30848877 47.67687866 29.61697754 48.35375732 29.93481445 49.05114746 C32.66302594 55.03734508 35.38510877 61.02630641 38.09838867 67.01928711 C43.10985701 78.08246235 48.19900704 89.10865001 53.3125 100.125 C53.71238129 100.98654694 54.11226257 101.84809387 54.52426147 102.73574829 C56.14605367 106.22970106 57.76790657 109.72362562 59.38996887 113.217453 C63.62748317 122.34714881 67.84662929 131.48529374 72.0625 140.625 C72.61531143 141.82343536 72.61531143 141.82343536 73.17929077 143.04608154 C74.66680892 146.2709555 76.15430483 149.4958397 77.64164734 152.72079468 C80.28078428 158.44260037 82.92300171 164.16297731 85.56640625 169.8828125 C92.72088628 185.36628027 99.85806977 200.85705882 106.9375 216.375 C113.89794024 231.63145027 120.94080785 246.84897701 127.9989624 262.0604248 C128.39762512 262.91962524 128.79628784 263.77882568 129.20703125 264.6640625 C129.6058551 265.52358521 130.00467896 266.38310791 130.41558838 267.26867676 C136.51010928 280.40679182 142.57185804 293.56005152 148.63710022 306.71170044 C151.28864984 312.4603566 153.94439007 318.20706603 156.6015625 323.953125 C158.13051005 327.26027728 159.65914678 330.56757302 161.1875 333.875 C161.56267761 334.68689789 161.93785522 335.49879578 162.32440186 336.33529663 C167.80179846 348.19303055 173.22224332 360.07548732 178.60971069 371.9743042 C183.46389089 382.68921378 188.42497138 393.35042142 193.43832397 403.9916687 C198.53304398 414.80988378 203.50967075 425.67763143 208.4375 436.57275391 C213.04456317 446.75388361 217.73756954 456.89067097 222.5 467 C229.50668979 481.87942625 236.3379874 496.8346511 243.11083984 511.82177734 C244.74206215 515.43103904 246.3772954 519.03846954 248.01359558 522.64543152 C249.32221382 525.53062458 250.62942587 528.4164531 251.93624878 531.30245972 C252.5571919 532.67335501 253.1785436 534.04406532 253.80032349 535.4145813 C254.65739852 537.30437943 255.51255385 539.19503429 256.3671875 541.0859375 C257.09591064 542.6954126 257.09591064 542.6954126 257.83935547 544.33740234 C261.30798273 552.29466968 261.2369621 562.16411798 259.09375 570.54296875 C254.87555643 581.21013133 249.01834956 586.70675963 239 592 C235.69122553 593.39088788 232.32408746 594.44614062 228.88671875 595.47265625 C227.83916916 595.7968605 226.79161957 596.12106476 225.71232605 596.45509338 C222.55302745 597.42641886 219.38990364 598.38294375 216.22399139 599.33237457 C213.84121822 600.04766509 211.45962526 600.76679246 209.07818604 601.48651123 C195.81901931 605.49125996 182.54660958 609.45125842 169.27251816 613.40620041 C163.36182221 615.16795368 157.45203131 616.93273697 151.54223633 618.69750977 C150.33922347 619.0567475 149.13621061 619.41598524 147.89674282 619.78610897 C145.4426279 620.51895789 142.98851714 621.25182076 140.53441048 621.98469734 C136.79940697 623.09999252 133.06431533 624.21499214 129.32920837 625.3299408 C104.73929911 632.67090843 80.15851004 640.04216885 55.57947922 647.41946411 C51.05164564 648.77840436 46.52372177 650.1370436 41.99579525 651.49567413 C20.73525043 657.87503481 -0.52464836 664.2565463 -21.78401089 670.63984585 C-31.81563182 673.65188708 -41.84744229 676.66329654 -51.87936497 679.67433262 C-57.82685602 681.45949499 -63.77423921 683.24501482 -69.72134399 685.03146362 C-70.84692624 685.36955205 -71.97250849 685.70764048 -73.13219929 686.05597401 C-75.35937833 686.72494855 -77.58654061 687.39397893 -79.81368542 688.06306744 C-85.10810865 689.65307408 -90.40335418 691.24023041 -95.7006073 692.82078552 C-97.70210585 693.41809362 -99.70359628 694.01542892 -101.70507812 694.61279297 C-102.66752095 694.89996594 -103.62996378 695.18713892 -104.62157154 695.48301411 C-110.01089546 697.09456494 -115.39157123 698.73106195 -120.76420212 700.39741039 C-123.8973982 701.36745372 -127.03448826 702.324461 -130.17230988 703.27942085 C-131.57381555 703.70978071 -132.97342524 704.1463817 -134.37071991 704.59022331 C-147.08829135 708.628038 -158.73353171 710.16202867 -171 704 C-182.96336817 697.05829254 -189.34988554 683.90588536 -196.42822266 672.52294922 C-198.89293287 668.56670265 -201.38395316 664.62719661 -203.875 660.6875 C-204.36444092 659.91229004 -204.85388184 659.13708008 -205.3581543 658.33837891 C-209.81734888 651.27840831 -214.30237545 644.2349686 -218.78857422 637.19213867 C-223.02893327 630.53280243 -227.24942824 623.86120069 -231.4609375 617.18359375 C-235.29202359 611.11263987 -239.14321169 605.05465239 -243 599 C-247.8377163 591.40541918 -252.65743071 583.79984917 -257.4609375 576.18359375 C-261.29202359 570.11263987 -265.14321169 564.05465239 -269 558 C-273.8377163 550.40541918 -278.65743071 542.79984917 -283.4609375 535.18359375 C-287.29202506 529.11263753 -291.14371915 523.0549774 -295 517 C-296.17579362 515.15104953 -297.35157495 513.30209125 -298.52734375 511.453125 C-300.8033773 507.87513659 -303.08802679 504.30287318 -305.37890625 500.734375 C-306.44020912 499.07298371 -307.50141176 497.41152838 -308.5625 495.75 C-309.03880859 495.01265625 -309.51511719 494.2753125 -310.00585938 493.515625 C-315.66862004 484.62275477 -320.17284662 476.63494857 -320.3125 465.9375 C-320.34150391 465.22400391 -320.37050781 464.51050781 -320.40039062 463.77539062 C-320.52938385 452.67205082 -314.37060354 443.89125285 -308.625 434.8125 C-307.91014626 433.66959235 -307.19621378 432.52610802 -306.4831543 431.38208008 C-305.39081565 429.62991798 -304.29787133 427.87816641 -303.20188904 426.12828064 C-299.68547964 420.51341571 -296.24478201 414.85402166 -292.8125 409.1875 C-287.88276067 401.06878777 -282.90362818 392.98232981 -277.89379883 384.9128418 C-273.89408232 378.46303399 -269.93913233 371.98695965 -266 365.5 C-261.53392616 358.14527354 -257.03847976 350.81027056 -252.5 343.5 C-247.43462463 335.34001244 -242.42699735 327.14643746 -237.44140625 318.9375 C-232.31684956 310.50568536 -227.14538699 302.1032222 -221.96826172 293.70361328 C-217.55929864 286.54584566 -213.17640687 279.37281422 -208.8125 272.1875 C-203.87947143 264.06577954 -198.89878206 255.97530104 -193.88720703 247.90185547 C-189.36318545 240.60579531 -184.89775983 233.27503073 -180.44140625 225.9375 C-175.31684956 217.50568536 -170.14538699 209.1032222 -164.96826172 200.70361328 C-160.55929864 193.54584566 -156.17640687 186.37281422 -151.8125 179.1875 C-146.88168953 171.0694314 -141.90363502 162.98234082 -136.89379883 154.9128418 C-132.89408232 148.46303399 -128.93913233 141.98695965 -125 135.5 C-120.53392616 128.14527354 -116.03847976 120.81027056 -111.5 113.5 C-106.43462463 105.34001244 -101.42699735 97.14643746 -96.44140625 88.9375 C-91.31632808 80.50482733 -86.14527389 72.10092372 -80.96606445 63.70141602 C-77.1562368 57.51832856 -73.36909411 51.32241024 -69.60791016 45.10961914 C-66.75259463 40.39782557 -63.87937471 35.69712106 -61 31 C-60.09024414 29.51234131 -60.09024414 29.51234131 -59.16210938 27.99462891 C-57.3289517 25.00926924 -55.47947002 22.03465736 -53.625 19.0625 C-53.07827637 18.16885742 -52.53155273 17.27521484 -51.96826172 16.35449219 C-46.20483488 7.19497784 -39.72397867 -0.07884877 -29.2734375 -3.578125 C-19.45106611 -5.40083309 -8.75092486 -5.01234448 0 0 Z M-14.83994675 133.2780304 C-19.28811689 139.8808426 -20.07084534 149.64060316 -21.58886719 157.30078125 C-21.83373902 158.51624319 -22.07861086 159.73170513 -22.33090305 160.98399925 C-23.01195417 164.36948015 -23.68870432 167.75576993 -24.36370301 171.14245939 C-25.11207669 174.89155055 -25.86612477 178.63950111 -26.61943054 182.38760376 C-27.95575038 189.04043899 -29.28854894 195.69397219 -30.61911011 202.34796143 C-32.59544895 212.23117924 -34.57723947 222.11329797 -36.56035745 231.99515748 C-39.1879384 245.0887224 -41.81411716 258.18256783 -44.43763733 271.27694702 C-44.65442585 272.35896837 -44.87121437 273.44098973 -45.09457225 274.5557996 C-45.31434192 275.65270615 -45.5341116 276.7496127 -45.76054096 277.87975883 C-52.64614283 312.24685805 -59.54499575 346.61129188 -66.44525957 380.97544956 C-69.10965026 394.24447169 -71.77384579 407.513533 -74.43807301 420.78258795 C-74.90917981 423.12890685 -75.3802899 425.4752251 -75.85140061 427.82154322 C-82.43876737 460.62931588 -89.02395249 493.43752626 -95.60814264 526.24593658 C-96.58289597 531.10303558 -97.55767898 535.96012863 -98.53247643 540.81721878 C-99.83160758 547.29036513 -101.13067955 553.76352337 -102.42970705 560.23669052 C-102.90130692 562.58668571 -103.3729215 564.93667794 -103.84455252 567.28666687 C-104.06555703 568.38787369 -104.28656154 569.48908051 -104.51426315 570.62365723 C-104.7272423 571.68474095 -104.94022144 572.74582468 -105.1596545 573.83906245 C-105.56513976 575.86024321 -105.97028499 577.88149222 -106.37504685 579.90281796 C-107.22497034 584.14651104 -108.07776277 588.38948456 -108.94572639 592.62952805 C-109.08664115 593.32181798 -109.22755591 594.01410792 -109.37274081 594.72737634 C-109.73305931 596.49579548 -110.09604722 598.26367019 -110.45932102 600.0314846 C-111.99314817 607.81885771 -111.99314817 607.81885771 -109.72265625 615.12890625 C-107.67866035 617.60269102 -105.88424229 619.55787886 -103 621 C-96.63614536 621.4041521 -91.51871881 620.28862913 -85.46484375 618.4140625 C-84.5160434 618.13019684 -83.56724304 617.84633118 -82.58969116 617.55386353 C-79.36914565 616.5877223 -76.15350752 615.60613207 -72.9375 614.625 C-70.58977321 613.91782765 -68.24169734 613.21181341 -65.89331055 612.50683594 C-61.30316773 611.12764231 -56.71411047 609.74499032 -52.12641239 608.3576889 C-41.56790945 605.16525047 -30.99965059 602.00582017 -20.4296875 598.8515625 C-18.62017686 598.31148731 -16.81066759 597.77140753 -15.00115967 597.23132324 C-12.2411622 596.407566 -9.48115916 595.58382744 -6.72113419 594.76016235 C2.68046637 591.95424143 12.08061621 589.14347483 21.48059845 586.33213806 C26.1188643 584.94493355 30.7571845 583.55791081 35.39550781 582.17089844 C36.29229626 581.90272812 37.1890847 581.6345578 38.11304855 581.35826111 C50.52247743 577.64752866 62.93245634 573.93863988 75.34332085 570.23271179 C79.44937723 569.00651555 83.55506081 567.77908098 87.66045189 566.55065918 C100.74887545 562.63485773 113.8433144 558.74266776 126.96022224 554.92323685 C131.38225306 553.63454721 135.80244233 552.33954583 140.22311401 551.04620361 C143.70915202 550.03012299 147.19830371 549.02531732 150.68774414 548.02099609 C152.77766566 547.41037517 154.86743734 546.7992411 156.95703125 546.1875 C157.89419983 545.92176178 158.83136841 545.65602356 159.79693604 545.38223267 C165.44008111 543.71434707 170.72416648 541.99682761 174.41796875 537.1328125 C176.33073597 532.14214066 175.94106337 528.88242333 174.0859375 523.90625 C173.86265274 523.30688629 173.63936798 522.70752258 173.40931702 522.08999634 C170.43768251 514.28154396 167.01463867 506.65523676 163.61737061 499.02526855 C161.5902401 494.47185378 159.57971652 489.91110026 157.56640625 485.3515625 C157.16812622 484.45083008 156.76984619 483.55009766 156.35949707 482.62207031 C153.14741496 475.35260376 149.99210391 468.06076721 146.875 460.75 C142.42446216 450.32078323 137.94168162 439.90612785 133.4375 429.5 C132.07157553 426.3437669 130.70570599 423.18751003 129.33984375 420.03125 C128.99058838 419.22423645 128.64133301 418.4172229 128.28149414 417.58575439 C124.41942681 408.6605896 120.56483721 399.73219832 116.71038818 390.80374146 C110.41519042 376.22155437 104.11731075 361.64053355 97.8125 347.0625 C97.48682037 346.30945587 97.16114075 345.55641174 96.82559204 344.7805481 C94.55056456 339.52029192 92.27531093 334.26013358 90 329 C87.39567265 322.97923616 84.79145449 316.95842511 82.1875 310.9375 C81.86206207 310.18501984 81.53662415 309.43253967 81.20132446 308.65725708 C75.22314139 294.83382468 69.25224541 281.0072501 63.28256226 267.18014526 C57.53753708 253.87356084 51.78806432 240.56891102 46.03378296 227.2663269 C41.68881668 217.22152712 37.34697125 207.17538685 33.01013184 197.1270752 C30.97076029 192.40207657 28.93011289 187.67763917 26.88623047 182.95458984 C23.57388694 175.29777856 20.2623668 167.64120664 17.01377869 159.95707703 C15.82838365 157.15414182 14.6361039 154.35416194 13.44320679 151.55441284 C12.65306089 149.69117036 11.87381018 147.8233191 11.0949707 145.95532227 C7.35520017 136.53614818 7.35520017 136.53614818 0 130 C-5.5491862 129.30136145 -10.61377571 129.05010058 -14.83994675 133.2780304 Z " fill="#ffffff" transform="translate(320,4)"/>
</svg>
